<?xml version="1.0" encoding="UTF-8"?>
<svg version="1.1" viewBox="0 0 2048 579" width="1252" height="354" xmlns="http://www.w3.org/2000/svg">
<path transform="translate(417,81)" d="m0 0h16l20 3 11 5 8 6 6 7 6 12 5 16 2 9 1 9v9l-2 13-3 3-10 5h-11l-3-1-2 1h-13l-3-7v-22l-6-10-7-8h-8l-6 4-3 8-4 18v15l5 16 8 15 3 4v2l3-1 3 9 4 2 15 14 8 11 3 1 30 1v-11l1-11 10-5 1-1-1-12-4-6-5-3v-5l3-2 1-4h-4v-83l5-5h38l30-2h19l12 3 10 6 5 6 9 14 1 3 1 14v31l-1 22v55h11l1-20 3-82 1-21v-13l-1-7v-8l3-7 2-2h39l20 1 8 1h27l3 3 3 9 1 11v9l-3 8-6 5-10-1-2 15-3 1 1-17h-2l-4 16h-3l1-10 1-7-15 1-5 2-5 7-1 3-1 32v20l3 2-2 1-2-1-1 16 8 1v2h-7l2 16 5 4 11 4v-2l8 2 1-4 1 4 6-1 1-2 1 2 11 1 3 9 33 1 16 1 2-19 1-1h14l11 1h18l1-7h-16l-1 3-20 1h-4-3l1-41 2-18v-12l-6-7-9-4-21-2-3-6-1-5v-20l2-12 4-4 7-2h22l18 1 6 1 20 1 34 5 20 2 4 4 3 4 1 10v14l-2 7-9 3h-12l-4-1h-9l-6 4-7 8v9l2 13v14h-3l-4-2-1 2-5-1-4 2 3 1h6l1 2-2 12 5-4v-5l3-1v11l-1 13v28h22l28 1 2-104 2-15v-38l1-3 9-4h23l18 2 5 2 2 11-3 26 1 15 1 10v26l-3 29-1 15h-1l-2-11-3-5-1 9-2 2-3-10-2-2-5-1v-2l-4 4-1 4v8l4 8 1 1 7-1 4-2v4l6-4h2v14l-1 14h10v-26l1-5v-37l-1-10v-10l2-17 2-35 2-16 12-5h11l18 4 4 4 8 16 10 21 4 13 5 19 5 13 3 8 5 17 5 10 3 3 4-1 7-13v-7l-5-11v-24l-1-11v-12l2-13v-10l-1-6v-8l3-6 3-2 5-1h26l9 2 8 5 4 8-1 9v13l1 9-1 21-2 28-2 8v16l3 20v14l-2 10h9l3 1 2-62 1-70 1-31h-4l1-4 5-1h36l13 2 4 2 1 2v9l-2 12 4 2v4l-4 1v44l-2 49h9v2h-9l-1 19-18 1 18 1 4 6h12l4-2 2-12 1-14h-7l-3-2 5-3 5 1v-124h-4l1 8 2 5-2 1-1 36 1 4-3 6-2-4 1-57-5-2-6 1v-4h31l17 1 2 1 1-3 1 3h5v-2h2v2h6l-1 3h-5l-4 2-5-1-4 4 9-1h11l9 1 6 5 1 2v9l-1 6-1 53-2 14v21l-1 12v25l1 11v10l7-1v-18l-4-8 1-38v-39l3-6 5-7 1-14 6-9 11-11h2v7l-1 8 1 4v9l1 5-2 1 2 7h-2l2 4-3 1 2 6v12l-1 10v26l-1 10v41l5 1-1-26h3l1-2 10 1 5 1 1 25 1 1 39 1 3 1 3-85-1-16-5-10-8-4-3-1h-12l-4 2-5 13-4 15-3 25-1 29-1 2h-7l-7-2-4-1v-12l1-3v-11l-1-8 2-1 1-25h2l-1-2-1-9-1 6h-2v-13l1-23 1-1h6l1-5 6-7 1-9-5 1-4-4-3 3v-6l4-2 7 1v-2l2-1 1-3 21-5 6-2 13 1 19 5 13 5 9 6 7 11 5 12 3 11 6 9-2 34-2 66-1 17 46 1 496 15 22 1 5 2 2 4v18l-2 6-3 2h-29l-530-16-8-1v17l-2 65v35l-7 8-3 3-2 9-8 11-5 12-5 4-12 5-22 6-5 1h-14l-16-4-14-7-5-4-6-11-10-12-8-13-2-5v-21l3-90 1-13h-7l-1 38-3 36-3 15v9l3 14v26l-2 21-2 4-10 3h-23l-21-3-4-6-2-6v-13l2-28 3-54v-27l-2-21-1-4-12-2-5 5-3 10-1 84-1 54-1 8-4 4h-12l-21-2-11-3-6-5-2-4v-10l1-7 1-17 2-57 1-44v-22l-9-1-1 16-2 20-3 101-1 5h-10l-7-2-5-3-4 1 4 1v4h22v24l-7 6-7 2h-14l-14-3-14-4-8-28-5-18-10-25-11-28-8-17-5-13-1-2-4 10-1 12 1 7v58l-1 29-2 16-1 4-6 2h-20l-14-3-7-4-4-7v-8l2-11v-23l4-36-1-9v-12l3-21-1-14-1-8v-23l-7-1-2 38v14l1 17 1 7v22l-3 18v35l-2 7-15 4-13 4h-17l-11-3-1-1v-32l4-98 2-34h-23l-28-1-2 36-1 47-2 68-1 18-2 8-5 2-6 1h-25l-16-3-2-1-2-6-1-8v-20l3-61 3-60 1-5 3-2v-2l-3-1 1-13-67-1-17-1-1 3-2-1v-2l-8 2v-2l-5 5-1 3-1 48-1 16v2l-1 7 1 4 1 29 1 12 5 2 8 3h32l5 5 2 5v14l-3 7-3 3-4 1h-15l-2-1-53-1-20-1-4-1-2-6-1-13 2-10v-15l2-65 1-4h7l-7-1v-30l1-20h-14l-4 12-8 10-4 3-8 3-7 5-10 1h-16l-3-1v-5h5 2l5-1-38-1 9 2 4 1 4-1 2 5-2 3v32l-1 24v15l1 7v18l1 6h-8l-2 1 11 2v7l-4 7-6 4h-13l-9-1h-19l-6-3-4-5-1-3v-29l1-5v-20l1-18 1-2h-1v-28h3v-2h-3l-1-14v-34l-11 1 1 15-2 19-2 11v17l1 7v21l-3 23-2 18-7 7-7 14-8 7-22 10-11 6-6 1-4-1-2 1-8-4-7-6-21-9-10-9-3-8-1-5-3-1-7-11-1-5v-20l3-22-1-15 4-6 1-5h-5l-1-2h6l2-29 1-2 3 1 1 22-2 9h3l1-24 1-8 3 1 1 8v17l-3 11 21 3 10 3 1 1-1 12v32l3 15 4 5 5 1 5-3 2-5 1-16 5-10 5-8v-17l1-12v-24l-4-15-1-15-2-1v3l-4-2-4-3-10-1-24-1-9-1v10h-4l-3-5v5l-5-1-3-6-2-2-11-1-48-1v2h-3v-3l-9 1-4 5-1 3-1 40v3 10l-1 16-2 4h2l1 30 2 14 10 5 4 1h31l6 8v15l-3 8-4 3-10 1-8-2h-39l-26-1-6-1-2-5-1-9v-9l1-4 2-67 1-19 12 1-1-1-11-1v-5l2-1-2-1 1-43-63-2-19-1-51-8-49-8-8-2v-2l13-3 91-9h27l61 2v-29l2-63 1-21v-41l2-4 3-2h34l28 2h26l4 11 1 11v11l-4 8-4 3-5 1-6-3-1 11-2 7-2-1 1-14 1-4-27 2-6 9-1 5-2 67 7 2v2l-7-1 2 16 4 4 9 4 3 1 2-6 4 1v2h-3v3h13l1-3 1 2 12 1 2 8 31 2 1-10 2-10h2l1 15h-3l3 4 2-6 1-12-3-5-3-12-6-10-1-42 3-13 9-20 5-16 9-11 13-9 13-6zm799 21 1 4zm2 0 2 4v-4zm-6 1v5h2l-1-5zm12 1v2h2v-2zm6 0 1 2h3v-2zm96 25 1 2 1-2zm-4 5m-764 7-3 4-1 13-1 34-4 3v3h3l1 12-4 2-3 2-1 6 5-2 3-2v8h-12v4h-23v3l19 2h15v19h12l1-22 6-1 3-5-5 2-3 1v-13h15l1-6v-8l2-1-1-5-6-1-2 1v-2l-6 1-2-12v-26l-1-9-4-5zm754 6-4 8 1 8 2-3 2-7v-6zm36 7m-60 22m-765 16-1 2h14v-2zm19 3m253 4-2 3 1 4 4-1v-6zm7 1v3h13v-2zm-202 1-6 9-2 5 1 5 2 1h9l2-3-5-1-1-10 2-6zm221 2m-233 4-4 9 1 3 2-1 2-7zm703 13 2 2v-2zm-455 11v15l3-3 2-5-1-5-1-2zm-463 1-1 9-1 3h2l1 3h9l-2-5-7-10zm913 2m-1010 6-1 4 3-1v-3zm562 15-1 3 1 2 5-1-1-4zm447 3v6l2-3-1-3zm-47 13 1 2 1-2zm-969 6-4 17 1 5 4-1-1-7 3-1v-13zm87 1m7 0m-8 1m7 0 1 3zm-111 8m1 1m1 1m246 0m15 0m165 1-3 6-1 5v10l4-2-2-5h2l1-14zm404 10 2 2h7l-3-2zm-818 3-1 6 2 4h2v-9zm-21 3v2l6 1-1-2zm1051 0-1 1v6l2 6v26l-6 4 3 1 4-1-2 11-1 42v17h1l2-22 1-21 4-4 1-21 2-16h7l3-3-7-3-4-1v-20l-2-1v18h-2l1-15-2-4zm27 1-1 4v26l-1 6v30l-3 1 2 4 3 30 4 10 5 5 10 4 9-1 8-5 3-5 2-7 3-7v-15l-1-6v-23l1-4v-9l-1-6v-8l2-11v-8l-1-3-2-1zm-1064 6-3 5-1 6 3-3 2-8zm836 0-1 3 2 1zm-261 7-1 3h2zm-570 1-5 8h-2l3 9 4 1 2-17zm282 1-1 32v15l2-1 1-7v-12l1-20 2-1-4-6zm130 1m-426 2 1 2zm1012 1 1 2zm-903 7-1 4 5-1v-2zm305 1 1 2zm-20 3v2h3v-2zm638 0 1 2 1-2zm-632 1m586 0 1 2zm-124 6v4h2v-4zm-852 2-3 5-4 25v4h-5l3 2v13l3-1 6-20 1-9v-15l3-1v-2zm810 7m165 0v2l2-1zm-159 1m7 0v1l10 2v-3zm-810 7-2 4h2l1-4zm839 1m19 9m1 1 1 2zm-452 1v5h1v-5zm453 1m-3 14v5h1v-5zm-474 4m-407 8v5h-3l3 11h2l3-6-2-10zm842 1m-1 6-2 6 1 3 2-3v-6zm-47 4m45 9-3 5-5 3v5l3 1h4l1 2 4-2 1-11-2-3zm-562 7m547 0m-239 4m253 15 2 13 4 2 5-1 2-5v-5l-6-2-2-2zm20 4 1 3z" fill="#E06C32"/>
<path transform="translate(1241,95)" d="m0 0 2 1v2h5v-2h2v2h6l-1 3h-5l-4 2-5-1-4 4 9-1h11l9 1 6 5 1 2v9l-1 6-1 53-2 14v21l-1 12v25l1 11v10l7-1v-18l-4-8 1-38v-39l3-6 5-7 1-14 6-9 11-11h2v7l-1 8 1 4v9l1 5-2 1 2 7h-2l2 4-3 1 2 6v12l-1 10v26l-1 10v41l5 1-1-26h3l1-2 10 1 5 1 1 25 1 1 39 1 3 1 3-85-1-16-5-10-8-4-3-1h-12l-4 2-5 13-4 15-3 25-1 29-1 2h-7l-7-2-4-1v-12l1-3v-11l-1-8 2-1 1-25h2l-1-2-1-9-1 6h-2v-13l1-23 1-1h6l1-5 6-7 1-9-5 1-4-4-3 3v-6l4-2 7 1v-2l2-1 1-3 21-5 6-2 13 1 19 5 13 5 9 6 7 11 5 12 3 11 6 9-2 34-2 66-1 17 46 1 496 15 22 1 5 2 2 4v18l-2 6-3 2h-29l-530-16-8-1v17l-2 65v35l-7 8-3 3-2 9-8 11-5 12-5 4-12 5-22 6-5 1h-14l-16-4-14-7-5-4-6-11-10-12-8-13-2-5v-21l3-90 1-13h-7l-1 38-3 36-3 15v9l3 14v26l-2 21-2 4-10 3h-23l-21-3-4-6-2-6v-13l2-28 3-54v-27l-2-21-1-4-12-2-5 5-3 10-1 84-1 54-1 8-4 4h-12l-21-2-11-3-6-5-2-4v-10l1-7 1-17 2-57 1-44v-22l-9-1-1 16-2 20-3 101-1 5h-10l-7-2-5-3-4 1 4 1v4h22v24l-7 6-7 2h-14l-14-3-14-4-8-28-5-18-10-25-11-28-8-17-5-13-1-2-4 10-1 12 1 7v58l-1 29-2 16-1 4-6 2h-20l-14-3-7-4-4-7v-8l2-11v-23l4-36-1-9v-12l3-21-1-14-1-8v-21l1-3 6-1 3-16 1-14-7-1v-26l1-5v-37l-1-10v-10l2-17 2-35 2-16 12-5h11l18 4 4 4 8 16 10 21 4 13 5 19 5 13 3 8 5 17 5 10 3 3 4-1 7-13v-7l-5-11v-24l-1-11v-12l2-13v-10l-1-6v-8l3-6 3-2 5-1h26l9 2 8 5 4 8-1 9v13l1 9-1 21-2 28-2 8v16l3 20v14l-2 10h9l3 1 2-62 1-70 1-31h-4l1-4 5-1h36l13 2 4 2 1 2v9l-2 12 4 2v4l-4 1v44l-2 49h9v2h-9l-1 19-18 1 18 1 4 6h12l4-2 2-12 1-14h-7l-3-2 5-3 5 1v-124h-4l1 8 2 5-2 1-1 36 1 4-3 6-2-4 1-57-5-2-6 1v-4h31l17 1 2 1zm-25 7 1 4zm2 0 2 4v-4zm-6 1v5h2l-1-5zm12 1v2h2v-2zm6 0 1 2h3v-2zm96 25 1 2 1-2zm-4 5m-10 13-4 8 1 8 2-3 2-7v-6zm36 7m-60 22m3 44 2 2v-2zm-5 14m-1 24v6l2-3-1-3zm-47 13 1 2 1-2zm-155 29 2 2h7l-3-2zm212 6-1 1v6l2 6v26l-6 4 3 1 4-1-2 11-1 42v17h1l2-22 1-21 4-4 1-21 2-16h7l3-3-7-3-4-1v-20l-2-1v18h-2l1-15-2-4zm27 1-1 4v26l-1 6v30l-3 1 2 4 3 30 4 10 5 5 10 4 9-1 8-5 3-5 2-7 3-7v-15l-1-6v-23l1-4v-9l-1-6v-8l2-11v-8l-1-3-2-1zm-228 6-1 3 2 1zm167 13 1 2zm20 11 1 2 1-2zm-46 1 1 2zm-124 6v4h2v-4zm-42 9m165 0v2l2-1zm-159 1m7 0v1l10 2v-3zm29 8m19 9m1 1 1 2zm1 2m-3 14v5h1v-5zm-39 13m-1 6-2 6 1 3 2-3v-6zm-47 4m45 9-3 5-5 3v5l3 1h4l1 2 4-2 1-11-2-3zm-15 7m14 19 2 13 4 2 5-1 2-5v-5l-6-2-2-2zm20 4 1 3z" fill="#E06C32"/>
<path transform="translate(417,81)" d="m0 0h16l20 3 11 5 8 6 6 7 6 12 5 16 2 9 1 9v9l-2 13-3 3-10 5h-11l-3-1-2 1h-13l-3-7v-22l-6-10-7-8h-8l-6 4-3 8-4 18v15l5 16 8 15 3 4v2l3-1 3 9 4 2 15 14 11 16 6 10 1-3h2v7l7 9 3 7 1 15-2 19-2 11v17l1 7v21l-3 23-2 18-7 7-7 14-8 7-22 10-11 6-6 1-4-1-2 1-8-4-7-6-21-9-10-9-3-8-1-5-3-1-7-11-1-5v-20l3-22-1-15 4-6 1-5h-5l-1-2h6l2-29 1-2 3 1 1 22-2 9h3l1-24 1-8 3 1 1 8v17l-3 11 21 3 10 3 1 1-1 12v32l3 15 4 5 5 1 5-3 2-5 1-16 5-10 5-8v-17l1-12v-24l-4-15-1-15-2-1v3l-4-2-4-3-10-1-24-1-9-1v10h-4l-3-5v5l-5-1-3-6-2-2-11-1-48-1v2h-3v-3l-9 1-4 5-1 3-1 40v3 10l-1 16-2 4h2l1 30 2 14 10 5 4 1h31l6 8v15l-3 8-4 3-10 1-8-2h-39l-26-1-6-1-2-5-1-9v-9l1-4 2-67 1-19 12 1-1-1-11-1v-5l2-1-2-1 1-43-63-2-19-1-51-8-49-8-8-2v-2l13-3 91-9h27l61 2v-29l2-63 1-21v-41l2-4 3-2h34l28 2h26l4 11 1 11v11l-4 8-4 3-5 1-6-3-1 11-2 7-2-1 1-14 1-4-27 2-6 9-1 5-2 67 7 2v2l-7-1 2 16 4 4 9 4 3 1 2-6 4 1v2h-3v3h13l1-3 1 2 12 1 2 8 31 2 1-10 2-10h2l1 15h-3l3 4 2-6 1-12-3-5-3-12-6-10-1-42 3-13 9-20 5-16 9-11 13-9 13-6zm-44 151-1 9-1 3h2l1 3h9l-2-5-7-10zm-97 8-1 4 3-1v-3zm-7 37-4 17 1 5 4-1-1-7 3-1v-13zm87 1m7 0m-8 1m7 0 1 3zm-111 8m1 1m1 1m12 14-1 6 2 4h2v-9zm-21 3v2l6 1-1-2zm14 7-3 5-1 6 3-3 2-8zm5 8-5 8h-2l3 9 4 1 2-17zm-14 4 1 2zm109 8-1 4 5-1v-2zm-99 13-3 5-4 25v4h-5l3 2v13l3-1 6-20 1-9v-15l3-1v-2zm13 15-2 4h2l1-4zm-24 39v5h-3l3 11h2l3-6-2-10z" fill="#E06C32"/>
<path transform="translate(1349,101)" d="m0 0 13 1 19 5 13 5 9 6 7 11 5 12 3 11 6 9-2 34-2 66-1 17 46 1 496 15 22 1 5 2 2 4v18l-2 6-3 2h-29l-530-16-8-1v17l-2 65v35l-7 8-3 3-2 9-8 11-5 12-5 4-12 5-22 6-5 1h-14l-16-4-14-7-5-4-6-11-10-12-8-13-2-5v-21l3-90 1-13h-7v-32l7-1v-18l-4-8 1-38v-39l3-6 5-7 1-14 6-9 11-11h2v7l-1 8 1 4v9l1 5-2 1 2 7h-2l2 4-3 1 2 6v12l-1 10v26l-1 10v41l5 1-1-26h3l1-2 10 1 5 1 1 25 1 1 39 1 3 1 3-85-1-16-5-10-8-4-3-1h-12l-4 2-5 13-4 15-3 25-1 29-1 2h-7l-7-2-4-1v-12l1-3v-11l-1-8 2-1 1-25h2l-1-2-1-9-1 6h-2v-13l1-23 1-1h6l1-5 6-7 1-9-5 1-4-4-3 3v-6l4-2 7 1v-2l2-1 1-3 21-5zm-23 28 1 2 1-2zm-4 5m-10 13-4 8 1 8 2-3 2-7v-6zm36 7m-60 22m3 44 2 2v-2zm-5 14m-1 24v6l2-3-1-3zm10 48-1 1v6l2 6v26l-6 4 3 1 4-1-2 11-1 42v17h1l2-22 1-21 4-4 1-21 2-16h7l3-3-7-3-4-1v-20l-2-1v18h-2l1-15-2-4zm27 1-1 4v26l-1 6v30l-3 1 2 4 3 30 4 10 5 5 10 4 9-1 8-5 3-5 2-7 3-7v-15l-1-6v-23l1-4v-9l-1-6v-8l2-11v-8l-1-3-2-1zm-41 30 1 2 1-2z" fill="#DEB67C"/>
<path transform="translate(908,98)" d="m0 0h23l18 2 5 2 2 11-3 26 1 15 1 10v26l-3 29-1 15h-1l-2-11-3-5-1 9-2 2-3-10-2-2-5-1v-2l-4 4-1 4v8l4 8 1 1 7-1 4-2v4l6-4h2v14l-1 14h13l4 1v14l-3 16-7 2-8-1-2 38v14l1 17 1 7v22l-3 18v35l-2 7-15 4-13 4h-17l-11-3-1-1v-32l4-98 2-34h-23l-28-1-2 36-1 47-2 68-1 18-2 8-5 2-6 1h-25l-16-3-2-1-2-6-1-8v-20l3-61 3-60 1-5 3-2v-2l-3-1 1-12 7-2 13-2v-2l-12-1-1-1 1-25h-6v-12l1-7 1-1h14l11 1h18l1-7h-16l-1 3-20 1h-4-3l1-41 2-18v-12l-6-7-9-4-21-2-3-6-1-5v-20l2-12 4-4 7-2h22l18 1 6 1 20 1 34 5 20 2 4 4 3 4 1 10v14l-2 7-9 3h-12l-4-1h-9l-6 4-7 8v9l2 13v14h-3l-4-2-1 2-5-1-4 2 3 1h6l1 2-2 12 5-4v-5l3-1v11l-1 13v28h22l28 1 2-104 2-15v-38l1-3zm-113 101-2 3 1 4 4-1v-6zm7 1v3h13v-2zm19 3m15 28v15l3-3 2-5-1-5-1-2zm2 24-1 3 1 2 5-1-1-4zm-5 65-1 3h2z" fill="#E06D33"/>
<path transform="translate(244,82)" d="m0 0h34l28 2h26l4 11 1 11v11l-4 8-4 3-5 1-6-3-1 11-2 7-2-1 1-14 1-4-27 2-6 9-1 5-2 67 7 2v2l-7-1 2 16 4 4 9 4 3 1 2-6 4 1v2h-3v3h13l1-3 1 2 12 1 2 8 31 2 1-10 2-10h2l1 15h-3l3 4 2-1v4l6-2h10l7 1 10 12 8 10 8 9v2h-15l-24-1-9-1v10h-4l-3-5v5l-5-1-3-6-2-2-11-1-48-1v2h-3v-3l-9 1-4 5-1 3-1 40v3 10l-1 16-2 4h2l1 30 2 14 10 5 4 1h31l6 8v15l-3 8-4 3-10 1-8-2h-39l-26-1-6-1-2-5-1-9v-9l1-4 2-67 1-19 12 1-1-1-11-1v-5l2-1-2-1 1-43-63-2-19-1-51-8-49-8-8-2v-2l13-3 91-9h27l61 2v-29l2-63 1-21v-41l2-4zm32 158-1 4 3-1v-3zm-7 37-4 17 1 5 4-1-1-7 3-1v-13zm87 1m7 0m-8 1m7 0 1 3zm-111 8m1 1m1 1m12 14-1 6 2 4h2v-9zm-21 3v2l6 1-1-2zm14 7-3 5-1 6 3-3 2-8zm5 8-5 8h-2l3 9 4 1 2-17zm-14 4 1 2zm10 21-3 5-4 25v4h-5l3 2v13l3-1 6-20 1-9v-15l3-1v-2zm13 15-2 4h2l1-4zm-24 39v5h-3l3 11h2l3-6-2-10z" fill="#DEB67C"/>
<path transform="translate(644,94)" d="m0 0h39l20 1 8 1h27l3 3 3 9 1 11v9l-3 8-6 5-10-1-2 15-3 1 1-17h-2l-4 16h-3l1-10 1-7-15 1-5 2-5 7-1 3-1 32v20l3 2-2 1-2-1-1 16 8 1v2h-7l2 16 5 4 11 4v-2l8 2 1-4 1 4 6-1 1-2 1 2 11 1 3 9 33 1 16 1 1-2v2h6v25l12 1v4l-20 3-16-1-51-1-17-1-1 3-2-1v-2l-8 2v-2l-5 5-1 3-1 48-1 16v2l-1 7 1 4 1 29 1 12 5 2 8 3h32l5 5 2 5v14l-3 7-3 3-4 1h-15l-2-1-53-1-20-1-4-1-2-6-1-13 2-10v-15l2-65 1-4h7l-7-1v-30l1-20h-15l1-20 2-26h1v13h11l1-20 3-82 1-21v-13l-1-7v-8l3-7zm35 196-3 6-1 5v10l4-2-2-5h2l1-14zm-4 33m-12 11 1 2zm-20 3v2h3v-2zm6 1m30 35v5h1v-5z" fill="#E06D33"/>
<path transform="translate(908,98)" d="m0 0h23l18 2 5 2 2 11-3 26 1 15 1 10v26l-3 29-1 15h-1l-2-11-3-5-1 9-2 2-3-10-2-2-5-1v-2l-4 4-1 4v8l4 8 1 1 7-1 4-2v4l6-4h2v14l-1 14h13l4 1v14l-3 16-7 2-8-1-2 38v14l1 17 1 7v22l-3 18v35l-2 7-15 4-13 4h-17l-11-3-1-1v-32l4-98 2-34h-23l-28-1 1-26 1-6h22l28 1 2-104 2-15v-38l1-3z" fill="#E06C32"/>
<path transform="translate(1276,306)" d="m0 0h18l1 7 2 6v26l-6 4h6v7l-1 4-1 50 2-34 4-2 1-23 2-16 5-1 4-1-2-2-7-1-1-5 1-18h12l5 1 1 29-1 6-1 30-2 1 2 4 3 30 4 10 4 4 10 4 9-1 7-4 3-5 2-7 3-7v-15l-1-6v-23l1-4v-9l-1-6v-8l2-11 1-11h34l16 1 1 1v16l-2 65v35l-7 8-3 3-2 9-8 11-5 12-5 4-12 5-22 6-5 1h-14l-16-4-14-7-5-4-6-11-10-12-8-13-2-5v-21l3-90zm5 31 1 2 1-2z" fill="#E06C32"/>
<path transform="translate(1349,101)" d="m0 0 13 1 19 5 13 5 9 6 7 11 5 12 3 11 6 9-2 34-2 66-1 17h-39l-12-1-1-1v-29l2-62-2-12-4-7-8-4-3-1h-12l-4 2-5 13-4 15-3 25-1 29-1 2h-7l-7-2-4-1v-12l1-3v-11l-1-8 2-1 1-25h2l-1-2-1-9-1 6h-2v-13l1-23 1-1h6l1-5 6-7 1-9-5 1-4-4-3 3v-6l4-2 7 1v-2l2-1 1-3 21-5zm-23 28 1 2 1-2zm-4 5m-10 13-4 8 1 8 2-3 2-7v-6z" fill="#E06D33"/>
<path transform="translate(244,82)" d="m0 0h34l28 2h26l4 11 1 11v11l-4 8-4 3-5 1-6-3-1 11-2 7-2-1 1-14 1-4-27 2-6 9-1 5-2 67 7 2v2l-7-1 2 16 4 4 9 4 3 1 2-6 4 1v2h-3v3h13l1-3 1 2 12 1 1 9h-38l-12-1v-4h-2l-2 4h-19l-14-1-5-1v-29l2-63 1-21v-41l2-4z" fill="#E06D33"/>
<path transform="translate(235,275)" d="m0 0h34l1 2-4 17v4h3v-7l2-1 1-14h9l-4 6-1 3-1 40v3 10l-1 16-2 4h2l1 30 2 14 10 5 4 1h31l6 8v15l-3 8-4 3-10 1-8-2h-39l-26-1-6-1-2-5-1-9v-9l1-4 2-67 1-19 12 1-1-1-11-1v-5l2-1-2-1 1-38zm16 12m1 1m1 1m12 14-1 6 2 4h2v-9zm-21 3v2l6 1-1-2zm14 7-3 5-1 6 3-3 2-8zm5 8-5 8h-2l3 9 4 1 2-17zm-14 4 1 2zm10 21-3 5-4 25v4h-5l3 2v13l3-1 6-20 1-9v-15l3-1v-2zm13 15-2 4h2l1-4zm-24 39v5h-3l3 11h2l3-6-2-10z" fill="#E06D33"/>
<path transform="translate(1299,123)" d="m0 0h2v7l-1 8 1 4v9l1 5-2 1 2 7h-2l2 4-3 1 2 6v12l-1 10v26l-1 10v42h-13l-9-1-1-19-4-8 1-38v-39l3-6 5-7 1-14 6-9zm-11 53m3 44 2 2v-2zm-5 14m-1 24v6l2-3-1-3z" fill="#E06D33"/>
<path transform="translate(786,257)" d="m0 0 1 2h6v25l12 1v4l-20 3-16-1-51-1v-1l11-2 4-2 3-9 1-18h33l16 1z" fill="#DEB77D"/>
<path transform="translate(844,261)" d="m0 0h22l35 1v29l-1 3-7 1-51-2 1-26z" fill="#DEB77D"/>
<path transform="translate(493,239)" d="m0 0h1v11h6l1 1v31l-2 1-18-1-5-9-5-6 1-7h-2l-1 4-6-9-3-6 33 1z" fill="#DEB77D"/>
<path transform="translate(623,241)" d="m0 0h1v13h17l2 1v22l-1 10h-22l1-20z" fill="#DEB67C"/>
<path transform="translate(1131,267)" d="m0 0 1 2 7 1-1 30-2 2-16-1-2-9v-19l1-4h9l3 1z" fill="#DEB77D"/>
<path transform="translate(950,264)" d="m0 0h13l4 1v14l-3 16-7 2-8-1z" fill="#DEB77D"/>
<path transform="translate(1307,247)" d="m0 0 10 1 5 1v26h-18l-1-26h3z" fill="#E06D33"/>
<path transform="translate(552,252)" d="m0 0h16l4 1v13l-4 8-3 3-5-1-6-4-2-4z" fill="#DEB77D"/>
<path transform="translate(705,200)" d="m0 0 4 1v8h-2l-2 17 3-3 2-5 3 1-1 15-4 1-3-5-2 5-3-1-1-5h-2l-1-6 1-3h-2l1-6 3-6 1 3-1 3v11l6-15z" fill="#E0783E"/>
<path transform="translate(1100,269)" d="m0 0 2 4-2 16 6 1-2 2-5 1v7h-6l1-17 1-8h4v-5z" fill="#DEB77D"/>
<path transform="translate(1204,106)" d="m0 0 2 4 2 5-2 1-1 36 1 4-3 6-2-4 1-47z" fill="#E06F35"/>
<path transform="translate(688,296)" d="m0 0h4l2 6 2-6h3l3 11h-3v5h-3v-6h-4v5l-3 1-3-10h2z" fill="#E0743A"/>
<path transform="translate(1090,444)" d="m0 0h23v6l-8 1-5-1-1 3v-3h-5l-4-4z" fill="#E0783E"/>
<path transform="translate(361,263)" d="m0 0h2l-1 22v3l-5-1-3-6 2-2h3v-9z" fill="#E07036"/>
<path transform="translate(309,161)" d="m0 0h3v13l-2 3v5l-4 1-1-4 3-11z" fill="#E0793F"/>
<path transform="translate(710,173)" d="m0 0h2v14l-1 3-1 5h-4v-7z" fill="#E0743A"/>
<path transform="translate(718,173)" d="m0 0h2v9l-2 7v5l-5 1 1-8 3-13z" fill="#E0783E"/>
<path transform="translate(302,206)" d="m0 0h3l-1 16-3 1-2-1-3-9h3z" fill="#E0773D"/>
<path transform="translate(710,218)" d="m0 0 3 1-1 15-4 1-3-5 1-4z" fill="#E0753B"/>
<path transform="translate(363,226)" d="m0 0h2l1 15h-3l2 5h-5l1-10z" fill="#E07238"/>
<path transform="translate(1204,106)" d="m0 0 2 4 2 5-2 1-1 11h-1l-1 13h-1v-29z" fill="#DF975D"/>
<path transform="translate(366,272)" d="m0 0h3v16h-4l-3-6 1-3 2-1z" fill="#E07036"/>
<path transform="translate(288,284)" d="m0 0h3l2 7 1 3-2 1-1 5h-3l-1-7-1-3h2z" fill="#E07036"/>
<path transform="translate(1238,280)" d="m0 0 2 2-1 11h3l-1 4-3 1v2l-2-1 1-16z" fill="#DFB982"/>
<path transform="translate(1168,69)" d="m0 0h11l1 3h-18v-2z" fill="#DF9157"/>
<path transform="translate(705,200)" d="m0 0 4 1v8h-2l-1 8h-1z" fill="#E07F45"/>
<path transform="translate(1203,145)" d="m0 0h1l2 11-3 6-2-4 1-8z" fill="#DF864C"/>
<path transform="translate(1302,181)" d="m0 0h2v17h-2l-1-11z" fill="#E0783E"/>
<path transform="translate(606,270)" d="m0 0 12 1v2h-16v-2z" fill="#E1BF8C"/>
<path transform="translate(699,208)" d="m0 0 1 3-1 3-1 12h-2l1-6h-2l1-6z" fill="#DF894F"/>
<path transform="translate(1195,130)" d="m0 0 5 1 1 4-5 1-2-2z" fill="#E07E44"/>
<path transform="translate(305,187)" d="m0 0 3 1v9l-3-1-1-5z" fill="#E07B41"/>
<path transform="translate(713,200)" d="m0 0h3v6l2 1-4 2-1-1z" fill="#E06E34"/>
<path transform="translate(368,254)" d="m0 0h3l1 8h-4z" fill="#E16C32"/>
<path transform="translate(198,172)" d="m0 0 4 1 1 4-4 1-2-5z" fill="#E07137"/>
<path transform="translate(574,204)" d="m0 0h2l3 5v2l-5-1z" fill="#E07238"/>
<path transform="translate(567,203)" d="m0 0 4 5v3l-5-2z" fill="#E07A40"/>
<path transform="translate(297,199)" d="m0 0h1l-1 8-2 1 1-8z" fill="#E07D43"/>
<path transform="translate(556,315)" d="m0 0 4 2-1 3h-3z" fill="#E07E44"/>
<path transform="translate(436,212)" d="m0 0 2 1-1 7-2-1z" fill="#DF945A"/>
<path transform="translate(785,163)" d="m0 0h1v8l-2 1z" fill="#DF864C"/>
<path transform="translate(212,135)" d="m0 0h2l1 7-2-1z" fill="#E07C42"/>
<path transform="translate(359,296)" d="m0 0 4 1v2h-6z" fill="#DF884E"/>
<path transform="translate(777,164)" d="m0 0h2l-1 8-2-1z" fill="#E08349"/>
<path transform="translate(700,242)" d="m0 0 3 1v2l-4 1v-3z" fill="#E0854B"/>
<path transform="translate(692,203)" d="m0 0 7 2-4 1-3-1z" fill="#E07E44"/>
<path transform="translate(1316,109)" d="m0 0 3 1v2h-5v-2z" fill="#E0854B"/>
<path transform="translate(1144,71)" d="m0 0h9v1l-8 1z" fill="#DF874D"/>
<path transform="translate(1156,70)" d="m0 0h5v2h-6z" fill="#E07238"/>
<path transform="translate(365,297)" d="m0 0h5v2h-5z" fill="#E16C32"/>
<path transform="translate(706,243)" d="m0 0h5v2h-5z" fill="#E07339"/>
<path transform="translate(284,191)" d="m0 0 7 1v1l-7-1z" fill="#E07B41"/>
<path transform="translate(380,310)" d="m0 0h1v5l-2-1z" fill="#DF884E"/>
<path transform="translate(628,235)" d="m0 0 1 3-2 3v-5z" fill="#E07E44"/>
<path transform="translate(220,222)" d="m0 0 1 4-2 3z" fill="#DF884E"/>
<path transform="translate(203,152)" d="m0 0h3v3l-3-1z" fill="#E0753B"/>
<path transform="translate(634,140)" d="m0 0h2l-1 6h-1z" fill="#DF9A60"/>
<path transform="translate(227,127)" d="m0 0 1 3-2 4z" fill="#DF9157"/>
<path transform="translate(291,171)" d="m0 0 3 1-1 3z" fill="#E08147"/>
<path transform="translate(627,140)" d="m0 0 2 1-1 5h-1z" fill="#DF965C"/>
<path transform="translate(1183,69)" d="m0 0 2 1v2h-3z" fill="#DF8C52"/>
<path transform="translate(372,310)" d="m0 0h2l-2 4z" fill="#E0854B"/>
<path transform="translate(380,297)" d="m0 0 2 1-1 3z" fill="#E0854B"/>
<path transform="translate(699,183)" d="m0 0 3 2-1 2z" fill="#E0783E"/>
<path transform="translate(691,183)" d="m0 0 4 2h-3z" fill="#E0783E"/>
<path transform="translate(372,297)" d="m0 0h2l-1 3z" fill="#DF8A50"/>
<path transform="translate(723,221)" d="m0 0v3l-2-1z" fill="#DF8A50"/>
<path transform="translate(314,209)" d="m0 0h2l-1 3z" fill="#DF995F"/>
<path transform="translate(723,206)" d="m0 0 3 1-3 1z" fill="#DF995F"/>
<path transform="translate(1136,71)" d="m0 0h5v1h-5z" fill="#DF8A50"/>
<path transform="translate(373,304)" d="m0 0 1 3-2-1z" fill="#E07E44"/>
<path transform="translate(380,304)" d="m0 0 2 3h-2z" fill="#E07E44"/>
<path transform="translate(628,232)" d="m0 0h2v2h-2z" fill="#E07E44"/>
<path transform="translate(715,221)" d="m0 0 1 3-2-1z" fill="#E07E44"/>
<path transform="translate(630,185)" d="m0 0h2v2h-2z" fill="#E16C32"/>
<path transform="translate(1180,82)" d="m0 0 3 1h-3z" fill="#DF9157"/>
<path transform="translate(1174,81)" d="m0 0 2 2-3-1z" fill="#DF9157"/>
<path transform="translate(465,236)" d="m0 0" fill="#DF9E64"/>
<path transform="translate(473,235)" d="m0 0" fill="#DEB77D"/>
<path transform="translate(298,196)" d="m0 0" fill="#E0854B"/>
<path transform="translate(315,194)" d="m0 0h2l-1 2z" fill="#E0854B"/>
<path transform="translate(385,318)" d="m0 0 2 1z" fill="#DEB77D"/>
<path transform="translate(472,241)" d="m0 0" fill="#DEB77D"/>
<path transform="translate(347,240)" d="m0 0" fill="#DF9157"/>
<path transform="translate(354,240)" d="m0 0 2 1z" fill="#DF9157"/>
<path transform="translate(346,238)" d="m0 0" fill="#DF9157"/>
<path transform="translate(221,219)" d="m0 0" fill="#E16C32"/>
<path transform="translate(1302,213)" d="m0 0" fill="#DEB77D"/>
<path transform="translate(1302,210)" d="m0 0" fill="#DEB77D"/>
<path transform="translate(288,210)" d="m0 0 2 1z" fill="#DF9157"/>
<path transform="translate(230,173)" d="m0 0" fill="#DF9157"/>
<path transform="translate(1305,118)" d="m0 0" fill="#DEB77D"/>
<path transform="translate(1209,85)" d="m0 0 2 1z" fill="#DF9157"/>
<path transform="translate(1202,85)" d="m0 0 2 1z" fill="#DF9157"/>
<path transform="translate(393,318)" d="m0 0" fill="#E16C32"/>
<path transform="translate(285,289)" d="m0 0" fill="#DEB77D"/>
<path transform="translate(465,241)" d="m0 0" fill="#DEB77D"/>
<path transform="translate(353,239)" d="m0 0" fill="#DEB77D"/>
<path transform="translate(228,220)" d="m0 0" fill="#E16C32"/>
<path transform="translate(629,212)" d="m0 0" fill="#DEB77D"/>
<path transform="translate(221,200)" d="m0 0" fill="#DEB77D"/>
<path transform="translate(1201,187)" d="m0 0" fill="#DEB77D"/>
<path transform="translate(1193,187)" d="m0 0" fill="#E16C32"/>
<path transform="translate(289,128)" d="m0 0" fill="#DEB77D"/>
<path transform="translate(1304,121)" d="m0 0" fill="#DEB77D"/>
</svg>
